<svg width="14" height="14" viewBox="0 0 14 14" fill="none" xmlns="http://www.w3.org/2000/svg">
<path d="M0 2.57529C0.011146 2.3856 0.0017599 2.19179 0.0381312 2.00708C0.0930195 1.71642 0.242587 1.45216 0.46344 1.25564C0.716866 1.026 0.958852 0.782275 1.18969 0.52915C1.76254 -0.0969094 2.7516 -0.193226 3.50689 0.379095C3.86679 0.652189 4.1167 1.00369 4.23109 1.45121C4.37218 2.00503 4.53966 2.5521 4.67899 3.10621C4.84178 3.75224 4.69043 4.32574 4.22757 4.80937C4.05862 4.98556 3.88468 5.15823 3.7084 5.32766C3.64505 5.38845 3.62422 5.44101 3.65296 5.53175C4.42458 7.98 6.03254 9.58978 8.47685 10.3611C8.55927 10.3872 8.61119 10.3749 8.66985 10.3138C8.84965 10.1271 9.03034 9.94059 9.21923 9.76352C9.68121 9.3301 10.2294 9.17623 10.8422 9.32305C11.4549 9.46987 12.0717 9.63843 12.6783 9.82372C13.6169 10.1109 14.3297 11.2553 13.8404 12.3086C13.765 12.467 13.6653 12.6126 13.5451 12.7402C13.2576 13.0474 12.952 13.3369 12.6575 13.637C12.417 13.8822 12.1122 13.995 11.786 13.9991C7.24815 14.0578 2.9493 11.2975 1.0753 7.143C0.423101 5.70509 0.0578246 4.15345 0 2.57529H0Z" fill="#FFFFFF"/>
</svg>
