<svg width="15" height="15" viewBox="0 0 15 15" fill="none" xmlns="http://www.w3.org/2000/svg">
<g clip-path="url(#clip0)">
<path d="M0 2.75924C0.0119422 2.556 0.0018856 2.34835 0.0408548 2.15045C0.0996638 1.83902 0.259914 1.55588 0.496543 1.34533C0.76807 1.09929 1.02734 0.838152 1.27467 0.566946C1.88844 -0.103832 2.94815 -0.207028 3.75739 0.406174C4.14299 0.698774 4.41075 1.07538 4.53331 1.55487C4.68448 2.14825 4.86392 2.73439 5.0132 3.32808C5.18762 4.02026 5.02546 4.63472 4.52954 5.1529C4.34852 5.34168 4.16216 5.52668 3.97329 5.70821C3.90541 5.77334 3.88309 5.82966 3.91389 5.92688C4.74062 8.55 6.46344 10.2748 9.08234 11.1012C9.17065 11.1292 9.22627 11.116 9.28913 11.0505C9.48177 10.8504 9.67536 10.6506 9.87775 10.4609C10.3727 9.99653 10.9601 9.83167 11.6166 9.98898C12.2731 10.1463 12.934 10.3269 13.5839 10.5254C14.5896 10.8331 15.3532 12.0592 14.829 13.1878C14.7482 13.3575 14.6414 13.5135 14.5126 13.6503C14.2046 13.9794 13.8771 14.2896 13.5616 14.6111C13.3039 14.8738 12.9774 14.9946 12.6279 14.9991C7.76587 15.062 3.15996 12.1045 1.15211 7.65322C0.453322 6.11259 0.0619549 4.45012 0 2.75924H0Z" fill="#E52828"/>
</g>
<defs>
<clipPath id="clip0">
<rect width="15" height="15" fill="white"/>
</clipPath>
</defs>
</svg>
