<svg width="83" height="32" viewBox="0 0 83 32" fill="none" xmlns="http://www.w3.org/2000/svg">
<g clip-path="url(#clip0)">
<path d="M4.94435 0.215261C6.43181 0.215261 7.53401 0.60988 8.25097 1.39912C8.96792 2.18836 9.32937 3.34531 9.33532 4.86997V7.3184C9.33532 8.84307 8.97387 10 8.25097 10.7893C7.52806 11.5785 6.42586 11.9731 4.94435 11.9731H3.56994V19.0538H0.606934V0.215261H4.94435ZM3.56994 2.90584V9.28253H4.9622C5.15674 9.2953 5.35185 9.26853 5.53587 9.20381C5.71988 9.13909 5.88902 9.03775 6.03317 8.90585C6.32935 8.50373 6.46325 8.00394 6.40801 7.50674V4.68163C6.46325 4.18444 6.32935 3.68464 6.03317 3.28253C5.88902 3.15062 5.71988 3.04928 5.53587 2.98456C5.35185 2.91984 5.15674 2.89307 4.9622 2.90584H3.56994Z" fill="#5E5E5E"/>
<path d="M22.7001 19.0538H19.7282L19.2195 15.6323H15.6183L15.1096 19.0538H12.3876L15.3907 0.219742H19.7014L22.7001 19.0538ZM15.9798 13.0762H18.8178L17.4033 3.55158L15.9798 13.0762Z" fill="#5E5E5E"/>
<path d="M26.6091 8.28698H31.964V10.9776H26.6091V8.28698Z" fill="#5E5E5E"/>
<path d="M39.5946 8.15248H43.6375V10.8431H39.5946V16.3588H44.6817V19.0493H36.6494V0.215261H44.6817V2.90584H39.5946V8.15248Z" fill="#5E5E5E"/>
<path d="M48.323 0.215261H57.4307V2.90584H54.3472V19.0493H51.402V2.90584H48.323V0.215261Z" fill="#5E5E5E"/>
<path d="M61.1344 4.73543C61.1344 3.21076 61.5182 2.04036 62.2857 1.22422C63.0532 0.408072 64.1658 0 65.6235 0C67.0693 0 68.176 0.408072 68.9435 1.22422C69.7111 2.04036 70.0948 3.21076 70.0948 4.73543V14.5291C70.0948 16.0538 69.7111 17.2197 68.9435 18.0448C68.176 18.87 67.0693 19.2825 65.6235 19.2825C64.1777 19.2825 63.0711 18.8744 62.3035 18.0583C61.536 17.2422 61.1344 16.0538 61.1344 14.5291V4.73543ZM64.0796 14.7175C64.0261 15.2333 64.175 15.7498 64.4946 16.1569C64.8035 16.4282 65.1999 16.5777 65.6102 16.5777C66.0204 16.5777 66.4168 16.4282 66.7257 16.1569C67.0454 15.7498 67.1943 15.2333 67.1408 14.7175V4.54709C67.1933 4.03135 67.0445 3.51526 66.7257 3.10762C66.4168 2.83639 66.0204 2.68691 65.6102 2.68691C65.1999 2.68691 64.8035 2.83639 64.4946 3.10762C64.1758 3.51526 64.027 4.03135 64.0796 4.54709V14.7175Z" fill="#5E5E5E"/>
<path d="M74.2983 4.73543C74.2983 3.21076 74.6598 2.04036 75.3827 1.22422C76.1056 0.408072 77.1899 0 78.6358 0C80.0816 0 81.1659 0.408072 81.8888 1.22422C82.6117 2.04036 82.9732 3.21076 82.9732 4.73543V5.32735H80.1887V4.54709C80.2394 4.03565 80.1012 3.52331 79.8004 3.10762C79.5024 2.83912 79.1163 2.69063 78.7161 2.69063C78.3158 2.69063 77.9297 2.83912 77.6317 3.10762C77.3309 3.52331 77.1927 4.03565 77.2435 4.54709C77.2368 5.14654 77.3909 5.73673 77.6897 6.25561C77.9875 6.76485 78.3473 7.23484 78.7607 7.65471C79.1891 8.09417 79.6487 8.53363 80.1396 8.97309C80.6348 9.41712 81.0958 9.89833 81.5184 10.4126C81.959 10.9559 82.3196 11.56 82.5894 12.2063C82.8961 12.9476 83.048 13.7443 83.0356 14.5471C83.0356 16.0717 82.6653 17.2377 81.9245 18.0628C81.1838 18.8879 80.0548 19.2825 78.609 19.2825C77.1632 19.2825 76.0699 18.8744 75.3291 18.0583C74.5884 17.2422 74.218 16.0673 74.218 14.5426V13.3722H77.0025V14.7175C76.9483 15.2292 77.0974 15.7418 77.4175 16.1435C77.7301 16.407 78.1251 16.5514 78.5331 16.5514C78.9411 16.5514 79.3361 16.407 79.6487 16.1435C79.9688 15.7418 80.118 15.2292 80.0637 14.7175C80.0704 14.118 79.9163 13.5278 79.6175 13.009C79.3197 12.4997 78.9599 12.0297 78.5465 11.6099C78.1241 11.1704 77.6749 10.7384 77.1989 10.3139C76.7036 9.86987 76.2427 9.38867 75.82 8.87444C75.3795 8.33108 75.0188 7.72702 74.749 7.08072C74.4402 6.33833 74.2868 5.53999 74.2983 4.73543Z" fill="#5E5E5E"/>
<path d="M4.90861 28.1749V29.4933C4.93042 29.8274 4.88647 30.1625 4.77928 30.4795C4.67208 30.7966 4.50374 31.0892 4.28388 31.3408C4.03944 31.569 3.75083 31.7441 3.43604 31.8552C3.12125 31.9663 2.78705 32.011 2.45431 31.9865C2.12089 32.0108 1.78607 31.9661 1.47058 31.855C1.1551 31.7439 0.865682 31.5689 0.620273 31.3408C0.401208 31.0889 0.233676 30.796 0.127249 30.479C0.020822 30.162 -0.0224162 29.8271 4.43123e-06 29.4933V24.3318C-0.0229076 23.998 0.020099 23.6629 0.126549 23.3458C0.233 23.0287 0.400793 22.736 0.620273 22.4843C0.865682 22.2562 1.1551 22.0812 1.47058 21.9701C1.78607 21.859 2.12089 21.8142 2.45431 21.8386C2.78705 21.8141 3.12125 21.8588 3.43604 21.9699C3.75083 22.081 4.03944 22.2561 4.28388 22.4843C4.50415 22.7356 4.67276 23.0282 4.77998 23.3453C4.8872 23.6624 4.93091 23.9977 4.90861 24.3318V25.296H3.35124V24.2152C3.37486 23.9482 3.29313 23.6824 3.12366 23.4753C2.95372 23.3229 2.73086 23.244 2.50339 23.2556C2.3907 23.2494 2.27789 23.2656 2.17144 23.3033C2.065 23.341 1.96701 23.3994 1.88312 23.4753C1.79656 23.5766 1.73104 23.6942 1.69042 23.8212C1.6498 23.9483 1.63491 24.0823 1.64662 24.2152V29.5964C1.63147 29.7306 1.64428 29.8664 1.68423 29.9954C1.72418 30.1243 1.79039 30.2435 1.87866 30.3453C2.05071 30.4936 2.27247 30.5705 2.49893 30.5605C2.7275 30.5705 2.95114 30.4918 3.12366 30.3408C3.20965 30.2386 3.27414 30.1199 3.31326 29.992C3.35237 29.8641 3.36529 29.7295 3.35124 29.5964V28.1749H4.90861Z" fill="#5E5E5E"/>
<path d="M7.26916 24.3318C7.24647 23.9962 7.29171 23.6595 7.40215 23.3419C7.5126 23.0244 7.68595 22.7326 7.91174 22.4843C8.16132 22.257 8.45397 22.0827 8.77218 21.9717C9.09038 21.8608 9.42759 21.8155 9.76363 21.8386C10.0974 21.8181 10.4319 21.8646 10.7475 21.9755C11.0632 22.0864 11.3537 22.2593 11.6021 22.4843C11.8279 22.7326 12.0013 23.0244 12.1117 23.3419C12.2222 23.6595 12.2674 23.9962 12.2447 24.3318V29.4933C12.2669 29.8288 12.2214 30.1655 12.111 30.4829C12.0006 30.8004 11.8275 31.0922 11.6021 31.3408C11.3516 31.568 11.0581 31.7423 10.7392 31.8532C10.4203 31.9641 10.0825 32.0095 9.74578 31.9866C9.40974 32.0096 9.07253 31.9644 8.75433 31.8534C8.43612 31.7424 8.14347 31.5681 7.89389 31.3408C7.66853 31.0922 7.49546 30.8004 7.38504 30.4829C7.27462 30.1655 7.22914 29.8288 7.25131 29.4933L7.26916 24.3318ZM8.9247 29.5964C8.91147 29.7319 8.92516 29.8686 8.965 29.9988C9.00484 30.1289 9.07001 30.2497 9.15674 30.3543C9.33263 30.4962 9.55144 30.5736 9.77701 30.5736C10.0026 30.5736 10.2214 30.4962 10.3973 30.3543C10.4825 30.2492 10.5458 30.1279 10.5834 29.9977C10.621 29.8675 10.632 29.731 10.6159 29.5964V24.2153C10.6307 24.0797 10.6178 23.9426 10.5779 23.8122C10.538 23.6819 10.4719 23.5612 10.3839 23.4574C10.208 23.3155 9.9892 23.2381 9.76363 23.2381C9.53805 23.2381 9.31924 23.3155 9.14336 23.4574C9.05877 23.5629 8.99588 23.6842 8.95835 23.8143C8.92081 23.9444 8.90937 24.0807 8.9247 24.2153V29.5964Z" fill="#5E5E5E"/>
<path d="M16.2877 24.6861V31.861H14.8062V21.9731H16.8678L18.559 27.9103V21.9731H20.0227V31.8744H18.3359L16.2877 24.6861Z" fill="#5E5E5E"/>
<path d="M22.4904 24.3319C22.4463 23.6602 22.6639 22.9976 23.0972 22.4843C23.3386 22.2556 23.6248 22.08 23.9375 21.9688C24.2502 21.8576 24.5827 21.8132 24.9134 21.8386C25.2442 21.813 25.5767 21.8572 25.8895 21.9684C26.2023 22.0796 26.4884 22.2553 26.7296 22.4843C27.1646 22.9967 27.3825 23.6599 27.3365 24.3319V24.6637H25.7836V24.2153C25.8102 23.9438 25.7319 23.6725 25.5649 23.4574C25.4842 23.3809 25.3887 23.3218 25.2843 23.284C25.1799 23.2462 25.0688 23.2304 24.9581 23.2377C24.848 23.2305 24.7376 23.2464 24.634 23.2842C24.5303 23.322 24.4355 23.381 24.3556 23.4574C24.1865 23.6714 24.108 23.9436 24.137 24.2153C24.1314 24.5311 24.215 24.842 24.3779 25.1121C24.5469 25.3912 24.7526 25.6461 24.9893 25.87C25.2258 26.1032 25.4846 26.3184 25.7568 26.565C26.0325 26.798 26.2906 27.0513 26.5288 27.3229C26.7673 27.6023 26.9642 27.9149 27.1134 28.2511C27.2821 28.6397 27.3644 29.0605 27.3543 29.4843C27.3762 29.8184 27.3322 30.1536 27.225 30.4706C27.1178 30.7876 26.9495 31.0803 26.7296 31.3319C26.4853 31.5603 26.1967 31.7355 25.8819 31.8467C25.5671 31.9578 25.2328 32.0024 24.9 31.9776C24.5666 32.0019 24.2318 31.9571 23.9163 31.846C23.6008 31.735 23.3114 31.56 23.066 31.3319C22.6253 30.8221 22.4024 30.1582 22.4457 29.4843V28.8834H24.0031V29.5964C23.988 29.7306 24.0008 29.8665 24.0407 29.9954C24.0807 30.1243 24.1469 30.2435 24.2352 30.3453C24.412 30.485 24.6305 30.5609 24.8554 30.5609C25.0804 30.5609 25.2988 30.485 25.4757 30.3453C25.564 30.2435 25.6302 30.1243 25.6701 29.9954C25.7101 29.8665 25.7229 29.7306 25.7077 29.5964C25.7133 29.2806 25.6297 28.9697 25.4668 28.6996C25.3 28.4294 25.099 28.1822 24.8688 27.9641C24.6323 27.731 24.3735 27.5157 24.1013 27.2691C23.8256 27.0361 23.5675 26.7828 23.3293 26.5112C23.0842 26.2258 22.8827 25.9054 22.7313 25.5606C22.5636 25.1733 22.4814 24.7541 22.4904 24.3319Z" fill="#5E5E5E"/>
<path d="M29.3132 21.9731H34.3959V23.3901H32.6779V31.9103H31.0312V23.3901H29.3132V21.9731Z" fill="#5E5E5E"/>
<path d="M40.0498 31.8744C40.0498 31.8072 40.0096 31.7444 39.9873 31.6906C39.9659 31.6201 39.9495 31.5482 39.9382 31.4753C39.9187 31.3673 39.9083 31.2578 39.907 31.148C39.907 31.0179 39.907 30.852 39.907 30.6547V29.0942C39.9405 28.7483 39.8503 28.4017 39.6526 28.1166C39.5424 28.0126 39.4113 27.9336 39.2681 27.8849C39.1249 27.8361 38.973 27.8188 38.8226 27.8341H38.2559V31.8699H36.5914V21.9731H39.0904C39.7614 21.912 40.4299 22.1145 40.9556 22.5381C41.1568 22.7657 41.3113 23.0311 41.4101 23.3189C41.5089 23.6067 41.5501 23.9114 41.5313 24.2152V24.9955C41.5313 26.0119 41.1713 26.6831 40.4514 27.009C40.6425 27.0727 40.8181 27.1764 40.9665 27.3132C41.1149 27.45 41.2329 27.6168 41.3126 27.8027C41.481 28.2303 41.56 28.6883 41.5447 29.148V30.6771C41.5423 30.8928 41.5528 31.1084 41.5759 31.3229C41.596 31.5162 41.6457 31.7053 41.7231 31.8834L40.0498 31.8744ZM38.2648 23.3542V26.4036H38.9074C39.1682 26.4193 39.4255 26.3379 39.6303 26.1749C39.7293 26.0645 39.8039 25.9343 39.8493 25.7929C39.8947 25.6514 39.9098 25.502 39.8936 25.3542V24.3901C39.9169 24.1147 39.8461 23.8394 39.6928 23.6099C39.611 23.5244 39.5113 23.4583 39.4009 23.4164C39.2905 23.3746 39.1722 23.3579 39.0547 23.3677L38.2648 23.3542Z" fill="#5E5E5E"/>
<path d="M45.6857 21.9731V29.5964C45.6711 29.7313 45.6841 29.8677 45.724 29.9973C45.7639 30.1269 45.8299 30.2469 45.9178 30.3498C46.0959 30.4865 46.3139 30.5606 46.5381 30.5606C46.7622 30.5606 46.9802 30.4865 47.1583 30.3498C47.2463 30.2469 47.3122 30.1269 47.3521 29.9973C47.392 29.8677 47.4051 29.7313 47.3904 29.5964V21.9731H48.9477V29.5067C48.991 30.1806 48.7682 30.8445 48.3275 31.3543C47.8076 31.7724 47.1615 32.0001 46.4957 32.0001C45.8298 32.0001 45.1838 31.7724 44.6639 31.3543C44.4448 31.1023 44.2773 30.8095 44.1708 30.4925C44.0644 30.1755 44.0212 29.8405 44.0436 29.5067V21.9731H45.6857Z" fill="#5E5E5E"/>
<path d="M56.3328 28.1749V29.4933C56.3553 29.8271 56.312 30.162 56.2056 30.479C56.0992 30.7961 55.9316 31.0889 55.7126 31.3408C55.1927 31.7589 54.5467 31.9867 53.8808 31.9867C53.2149 31.9867 52.5689 31.7589 52.049 31.3408C51.8299 31.0889 51.6624 30.7961 51.556 30.479C51.4495 30.162 51.4063 29.8271 51.4287 29.4933V24.3318C51.4058 23.998 51.4488 23.6629 51.5553 23.3458C51.6617 23.0288 51.8295 22.736 52.049 22.4843C52.5689 22.0662 53.2149 21.8384 53.8808 21.8384C54.5467 21.8384 55.1927 22.0662 55.7126 22.4843C55.9321 22.736 56.0999 23.0288 56.2063 23.3458C56.3128 23.6629 56.3558 23.998 56.3328 24.3318V25.296H54.7799V24.2152C54.7947 24.0797 54.7818 23.9425 54.7419 23.8122C54.702 23.6819 54.636 23.5611 54.5479 23.4574C54.372 23.3155 54.1532 23.2381 53.9276 23.2381C53.7021 23.2381 53.4832 23.3155 53.3074 23.4574C53.2193 23.5611 53.1533 23.6819 53.1134 23.8122C53.0735 23.9425 53.0605 24.0797 53.0753 24.2152V29.5964C53.0602 29.7306 53.073 29.8665 53.1129 29.9954C53.1529 30.1243 53.2191 30.2435 53.3074 30.3453C53.4843 30.4849 53.7027 30.5609 53.9276 30.5609C54.1526 30.5609 54.371 30.4849 54.5479 30.3453C54.6362 30.2435 54.7024 30.1243 54.7423 29.9954C54.7823 29.8665 54.7951 29.7306 54.7799 29.5964V28.1749H56.3328Z" fill="#5E5E5E"/>
<path d="M58.3544 21.9731H63.437V23.3901H61.719V31.9103H60.0724V23.3901H58.3544V21.9731Z" fill="#5E5E5E"/>
<path d="M65.6503 21.9731H67.2969V31.8744H65.6503V21.9731Z" fill="#5E5E5E"/>
<path d="M69.8539 24.3318C69.8323 23.9956 69.879 23.6585 69.991 23.3409C70.103 23.0233 70.278 22.7319 70.5054 22.4843C71.0336 22.0657 71.6867 21.838 72.3595 21.838C73.0322 21.838 73.6853 22.0657 74.2136 22.4843C74.4394 22.7326 74.6127 23.0244 74.7232 23.3419C74.8336 23.6595 74.8789 23.9962 74.8562 24.3318V29.4933C74.8968 29.8317 74.8602 30.175 74.749 30.497C74.6378 30.819 74.455 31.1114 74.2145 31.3518C73.974 31.5921 73.6821 31.7742 73.3611 31.8842C73.04 31.9942 72.6982 32.0292 72.3617 31.9866C72.025 32.0095 71.6872 31.9641 71.3683 31.8532C71.0493 31.7423 70.7559 31.568 70.5054 31.3408C70.28 31.0922 70.1069 30.8004 69.9965 30.4829C69.8861 30.1655 69.8406 29.8288 69.8628 29.4933L69.8539 24.3318ZM71.5005 29.5964C71.4862 29.7319 71.4994 29.869 71.5393 29.9992C71.5792 30.1295 71.6449 30.2502 71.7325 30.3543C71.8161 30.4306 71.9141 30.4893 72.0206 30.527C72.1271 30.5648 72.24 30.5807 72.3528 30.574C72.5803 30.5856 72.8031 30.5067 72.973 30.3543C73.0598 30.2497 73.125 30.1289 73.1648 29.9988C73.2046 29.8687 73.2183 29.7319 73.2051 29.5964V24.2153C73.2186 24.0798 73.205 23.9429 73.1652 23.8128C73.1253 23.6827 73.06 23.5618 72.973 23.4574C72.8031 23.305 72.5803 23.2261 72.3528 23.2377C72.24 23.2309 72.1271 23.2469 72.0206 23.2846C71.9141 23.3224 71.8161 23.3811 71.7325 23.4574C71.6445 23.5612 71.5785 23.6819 71.5386 23.8122C71.4986 23.9426 71.4857 24.0797 71.5005 24.2153V29.5964Z" fill="#5E5E5E"/>
<path d="M78.8724 24.6861V31.861H77.3909V21.9731H79.4525L81.1437 27.9103V21.9731H82.6118V31.8744H80.9206L78.8724 24.6861Z" fill="#5E5E5E"/>
</g>
<defs>
<clipPath id="clip0">
<rect width="83" height="32" fill="white"/>
</clipPath>
</defs>
</svg>
