<svg width="15" height="11" viewBox="0 0 15 11" fill="none" xmlns="http://www.w3.org/2000/svg">
<path d="M5.94756 5.57385L7.50333 6.83381L9.02196 5.56519L14.338 11.0012H0.531631C2.34325 9.18497 4.13938 7.38579 5.94756 5.57385Z" fill="#FFFFFF"/>
<path d="M7.5033 5.5054L0.481934 0H14.5244L7.5033 5.5054Z" fill="#FFFFFF"/>
<path d="M5.22822 5.00442L0.0708548 10.2166L0.0344452 10.2097C0.0228827 10.0847 0.00172581 9.96002 0.0014798 9.83508C-0.000488281 7.70498 -0.000980302 5.57487 3.73978e-06 3.44476V0.823486L5.22822 5.00442Z" fill="#FFFFFF"/>
<path d="M14.955 10.2352L9.79689 4.98735L15 0.85022C15 3.92309 15 6.97334 14.9986 10.0238C14.9986 10.0864 14.9737 10.1473 14.955 10.2352Z" fill="#FFFFFF"/>
</svg>
