<svg width="15" height="11" viewBox="0 0 15 11" fill="none" xmlns="http://www.w3.org/2000/svg">
<g clip-path="url(#clip0)">
<path d="M5.9487 5.57153L7.50448 6.83149L9.0231 5.56287L14.3391 10.9989H0.532776C2.3444 9.18265 4.14052 7.38347 5.9487 5.57153Z" fill="#E52828"/>
<path d="M7.50294 5.5054L0.481567 0H14.5241L7.50294 5.5054Z" fill="#E52828"/>
<path d="M5.22871 5.00479L0.071343 10.217L0.0349335 10.21C0.023371 10.0851 0.00221409 9.96039 0.00196808 9.83545C0 7.70534 -0.000492021 5.57523 0.000492021 3.44512V0.823853L5.22871 5.00479Z" fill="#E52828"/>
<path d="M14.9561 10.2346L9.79797 4.98674L15.0011 0.849609C15.0011 3.92248 15.0011 6.97273 14.9996 10.0232C14.9996 10.0858 14.9747 10.1467 14.9561 10.2346Z" fill="#E52828"/>
</g>
<defs>
<clipPath id="clip0">
<rect width="15" height="11" fill="white"/>
</clipPath>
</defs>
</svg>
