<svg width="12" height="18" viewBox="0 0 12 18" fill="none" xmlns="http://www.w3.org/2000/svg">
<path d="M5.91383 15.8571C5.51417 15.3175 5.12951 14.7938 4.7403 14.2732C3.78886 13.0007 2.8188 11.7427 1.8887 10.4543C1.25789 9.58128 0.721536 8.64678 0.352313 7.62822C-0.326641 5.75877 -0.00601123 4.00997 1.15661 2.45005C2.60308 0.506942 4.60815 -0.291994 6.99334 0.0948211C9.32267 0.472147 10.9017 1.84859 11.7033 4.06329C12.2106 5.46414 12.0489 6.8198 11.3577 8.1366C10.6492 9.48864 9.76819 10.7255 8.85671 11.941C7.94842 13.1467 7.03739 14.346 6.12818 15.5489C6.05734 15.6429 5.99466 15.7428 5.91383 15.8571ZM5.97922 9.16283C7.47247 9.17142 8.68822 8.00645 8.70003 6.55499C8.71184 5.08546 7.52515 3.87847 6.05688 3.86807C4.54229 3.85678 3.32745 5.0231 3.31836 6.4967C3.31687 6.84568 3.38454 7.19153 3.5175 7.51446C3.65046 7.83739 3.84611 8.13107 4.09325 8.3787C4.34039 8.62633 4.63416 8.82304 4.95778 8.95759C5.28139 9.09214 5.62849 9.16188 5.97922 9.16283Z" fill="#FFFFFF"/>
<path d="M5.89803 16.3393C6.3045 15.7763 6.69461 15.234 7.08791 14.694C7.23142 14.497 7.37856 14.3018 7.53343 14.1142C7.55414 14.0909 7.57987 14.0724 7.60873 14.0603C7.63758 14.0482 7.66882 14.0427 7.7001 14.0442C8.33591 14.1798 8.94674 14.3818 9.484 14.7609C9.57623 14.8259 9.66407 14.8968 9.74695 14.9733C10.3828 15.5607 10.3791 16.3158 9.73605 16.8947C9.26828 17.3158 8.70559 17.5603 8.10566 17.7167C6.53657 18.127 4.97656 18.103 3.43791 17.568C2.93834 17.3936 2.47193 17.1468 2.11315 16.7401C1.65173 16.2164 1.659 15.5973 2.14403 15.0912C2.62906 14.5851 3.26669 14.3289 3.9302 14.1391C4.2313 14.0528 4.23721 14.0519 4.41751 14.2982C4.87574 14.9231 5.32898 15.5521 5.78404 16.1798C5.82037 16.2295 5.8558 16.2801 5.89803 16.3393Z" fill="#FFFFFF"/>
</svg>
