<svg width="15" height="23" viewBox="0 0 15 23" fill="none" xmlns="http://www.w3.org/2000/svg">
<g clip-path="url(#clip0)">
<path d="M7.39228 19.8214C6.89272 19.1469 6.41189 18.4922 5.92538 17.8415C4.73608 16.2509 3.5235 14.6783 2.36088 13.0679C1.57236 11.9766 0.90192 10.8085 0.440391 9.53528C-0.408301 7.19846 -0.00751404 5.01246 1.44576 3.06257C3.25385 0.633677 5.76018 -0.364992 8.74167 0.118526C11.6533 0.590183 13.6272 2.31074 14.6292 5.07911C15.2633 6.83017 15.0612 8.52475 14.1971 10.1707C13.3116 11.8608 12.2102 13.4068 11.0709 14.9263C9.93552 16.4333 8.79674 17.9325 7.66023 19.4361C7.57167 19.5536 7.49333 19.6784 7.39228 19.8214ZM7.47403 11.4535C9.34058 11.4643 10.8603 10.0081 10.875 8.19374C10.8898 6.35682 9.40644 4.84809 7.5711 4.83509C5.67787 4.82097 4.15931 6.27887 4.14795 8.12087C4.14609 8.5571 4.23067 8.98941 4.39688 9.39308C4.56308 9.79674 4.80764 10.1638 5.11656 10.4734C5.42548 10.7829 5.79271 11.0288 6.19722 11.197C6.60174 11.3652 7.03562 11.4524 7.47403 11.4535Z" fill="#E52828"/>
<path d="M7.37249 20.4241C7.88057 19.7203 8.36821 19.0425 8.85983 18.3675C9.03922 18.1212 9.22315 17.8772 9.41673 17.6428C9.44262 17.6136 9.47479 17.5905 9.51086 17.5754C9.54693 17.5602 9.58597 17.5533 9.62507 17.5552C10.4198 17.7247 11.1834 17.9772 11.8549 18.4511C11.9702 18.5323 12.08 18.621 12.1836 18.7166C12.9784 19.4509 12.9739 20.3948 12.17 21.1184C11.5853 21.6448 10.8819 21.9504 10.132 22.1458C8.17066 22.6587 6.22065 22.6288 4.29733 21.96C3.67287 21.742 3.08986 21.4335 2.64138 20.9252C2.06461 20.2705 2.0737 19.4967 2.67999 18.864C3.28628 18.2314 4.08331 17.9111 4.9127 17.6739C5.28908 17.566 5.29646 17.5648 5.52183 17.8727C6.09463 18.6539 6.66118 19.4402 7.23 20.2248C7.27542 20.2869 7.31969 20.3502 7.37249 20.4241Z" fill="#E52828"/>
</g>
<defs>
<clipPath id="clip0">
<rect width="15" height="22.5" fill="white"/>
</clipPath>
</defs>
</svg>
