<svg width="38" height="56" viewBox="0 0 38 56" fill="none" xmlns="http://www.w3.org/2000/svg">
<g clip-path="url(#clip0)">
<path d="M37.8594 30.7604C36.2963 30.0373 34.836 29.3897 33.3974 28.6881C29.1301 26.5997 24.8574 24.522 20.628 22.3688C20.1503 22.0904 19.6072 21.9438 19.0541 21.9438C18.501 21.9438 17.9578 22.0904 17.4802 22.3688C12.3854 24.9267 7.26359 27.393 2.16339 29.8862C1.56305 30.1776 0.946484 30.4258 0.0270423 30.8575C0.0270423 28.4183 -0.0162256 26.2651 0.0703102 24.1173C0.0703102 23.7611 0.573299 23.2916 0.951893 23.1027C6.70111 20.2371 12.472 17.3878 18.2807 14.6085C18.888 14.417 19.5465 14.4713 20.1141 14.7596C23.7973 16.4919 27.4102 18.2998 31.4125 20.2587C31.4125 17.9112 31.4666 15.8228 31.3584 13.7505C31.3584 13.3673 30.6931 12.9032 30.2334 12.6712C26.9397 11.0144 23.6459 9.3469 20.2818 7.84126C19.4458 7.52531 18.52 7.5427 17.6966 7.88983C12.4936 10.3345 7.34472 12.9032 2.16339 15.4234C1.55764 15.7202 0.935667 16.0008 -1.21538e-07 16.4434C-1.21538e-07 13.9987 -0.032451 11.7915 0.0378593 9.58975C0.0378593 9.28754 0.481355 8.8828 0.816681 8.7155C6.64342 5.82295 12.4828 2.95918 18.3348 0.124196C18.831 -0.0584462 19.3795 -0.0370955 19.8599 0.183558C25.5497 2.9304 31.2178 5.69883 36.8588 8.54281C37.1495 8.71412 37.3978 8.94865 37.5851 9.22896C37.7724 9.50927 37.8939 9.82812 37.9405 10.1618C38.0108 16.7186 37.9838 23.2754 37.9784 29.8322C37.9562 30.1436 37.9165 30.4535 37.8594 30.7604Z" fill="#E52828"/>
<path d="M31.5639 51.6018L38 56V34.716L31.5639 31.7371V51.6018Z" fill="#5E5E5E"/>
<path d="M20.893 44.3165L27.3291 48.7147V30.4743L20.893 27.49V44.3165Z" fill="#5E5E5E"/>
<path d="M16.8799 44.3165L10.4438 48.7147V30.4743L16.8799 27.49V44.3165Z" fill="#5E5E5E"/>
<path d="M6.43609 51.6018L0 56V34.716L6.43609 31.7371V51.6018Z" fill="#5E5E5E"/>
</g>
<defs>
<clipPath id="clip0">
<rect width="38" height="56" fill="white"/>
</clipPath>
</defs>
</svg>
