<svg width="62" height="24" viewBox="0 0 62 24" fill="none" xmlns="http://www.w3.org/2000/svg">
<g clip-path="url(#clip0)">
<path d="M3.69325 0.161377C4.80436 0.161377 5.62769 0.457341 6.16325 1.04927C6.6988 1.6412 6.9688 2.50891 6.97325 3.65241V5.48873C6.97325 6.63223 6.70325 7.49994 6.16325 8.09187C5.62325 8.6838 4.79991 8.97976 3.69325 8.97976H2.66658V14.2903H0.453247V0.161377H3.69325ZM2.66658 2.17931V6.96183H3.70658C3.8519 6.97141 3.99765 6.95133 4.1351 6.90279C4.27256 6.85425 4.3989 6.77824 4.50658 6.67932C4.72782 6.37773 4.82784 6.00288 4.78658 5.62999V3.51115C4.82784 3.13826 4.72782 2.76341 4.50658 2.46183C4.3989 2.3629 4.27256 2.28689 4.1351 2.23835C3.99765 2.18981 3.8519 2.16973 3.70658 2.17931H2.66658Z" fill="#E5E5E5"/>
<path d="M16.9566 14.2904H14.7366L14.3566 11.7242H11.6666L11.2866 14.2904H9.2533L11.4966 0.164795H14.7166L16.9566 14.2904ZM11.9366 9.80717H14.0566L13 2.66367L11.9366 9.80717Z" fill="#E5E5E5"/>
<path d="M19.8766 6.21521H23.8766V8.23315H19.8766V6.21521Z" fill="#E5E5E5"/>
<path d="M29.5766 6.11429H32.5966V8.13223H29.5766V12.269H33.3766V14.2869H27.3766V0.161377H33.3766V2.17931H29.5766V6.11429Z" fill="#E5E5E5"/>
<path d="M36.0967 0.161377H42.9V2.17931H40.5967V14.2869H38.3967V2.17931H36.0967V0.161377Z" fill="#E5E5E5"/>
<path d="M45.6666 3.55157C45.6666 2.40807 45.9533 1.53027 46.5266 0.918161C47.1 0.306054 47.9311 0 49.02 0C50.1 0 50.9266 0.306054 51.5 0.918161C52.0733 1.53027 52.36 2.40807 52.36 3.55157V10.8969C52.36 12.0404 52.0733 12.9148 51.5 13.5336C50.9266 14.1525 50.1 14.4619 49.02 14.4619C47.94 14.4619 47.1133 14.1558 46.54 13.5437C45.9666 12.9316 45.6666 12.0404 45.6666 10.8969V3.55157ZM47.8666 11.0381C47.8267 11.425 47.9379 11.8123 48.1766 12.1177C48.4074 12.3211 48.7035 12.4332 49.01 12.4332C49.3164 12.4332 49.6125 12.3211 49.8433 12.1177C50.082 11.8123 50.1933 11.425 50.1533 11.0381V3.41031C50.1926 3.02351 50.0814 2.63644 49.8433 2.33072C49.6125 2.12729 49.3164 2.01519 49.01 2.01519C48.7035 2.01519 48.4074 2.12729 48.1766 2.33072C47.9385 2.63644 47.8274 3.02351 47.8666 3.41031V11.0381Z" fill="#E5E5E5"/>
<path d="M55.4999 3.55157C55.4999 2.40807 55.7699 1.53027 56.3099 0.918161C56.8499 0.306054 57.6599 0 58.7399 0C59.8199 0 60.6299 0.306054 61.1699 0.918161C61.7099 1.53027 61.9799 2.40807 61.9799 3.55157V3.99552H59.8999V3.41031C59.9379 3.02674 59.8346 2.64248 59.6099 2.33072C59.3873 2.12934 59.0989 2.01797 58.7999 2.01797C58.501 2.01797 58.2125 2.12934 57.9899 2.33072C57.7652 2.64248 57.662 3.02674 57.6999 3.41031C57.6949 3.8599 57.8101 4.30255 58.0333 4.6917C58.2557 5.07364 58.5245 5.42613 58.8333 5.74103C59.1533 6.07063 59.4966 6.40022 59.8633 6.72982C60.2332 7.06284 60.5775 7.42375 60.8933 7.80942C61.2223 8.21694 61.4917 8.66998 61.6933 9.15471C61.9224 9.7107 62.0358 10.3083 62.0266 10.9103C62.0266 12.0538 61.7499 12.9283 61.1966 13.5471C60.6433 14.1659 59.7999 14.4619 58.7199 14.4619C57.6399 14.4619 56.8233 14.1558 56.2699 13.5437C55.7166 12.9316 55.4399 12.0504 55.4399 10.907V10.0291H57.5199V11.0381C57.4794 11.4219 57.5908 11.8063 57.8299 12.1076C58.0634 12.3053 58.3585 12.4136 58.6633 12.4136C58.9681 12.4136 59.2631 12.3053 59.4966 12.1076C59.7357 11.8063 59.8471 11.4219 59.8066 11.0381C59.8116 10.5885 59.6965 10.1459 59.4733 9.75673C59.2508 9.37479 58.9821 9.0223 58.6733 8.7074C58.3577 8.3778 58.0222 8.05381 57.6666 7.73543C57.2967 7.4024 56.9523 7.0415 56.6366 6.65583C56.3075 6.24831 56.0381 5.79526 55.8366 5.31054C55.6059 4.75375 55.4913 4.15499 55.4999 3.55157Z" fill="#E5E5E5"/>
<path d="M3.66662 21.1312V22.1199C3.68292 22.3705 3.65009 22.6219 3.57001 22.8596C3.48994 23.0974 3.36419 23.3169 3.19995 23.5056C3.01737 23.6767 2.80177 23.8081 2.56663 23.8914C2.33149 23.9747 2.08185 24.0083 1.83329 23.9899C1.58423 24.0081 1.33412 23.9745 1.09846 23.8912C0.862797 23.8079 0.646605 23.6767 0.463288 23.5056C0.299649 23.3166 0.174505 23.097 0.0950051 22.8593C0.0155053 22.6215 -0.0167931 22.3703 -4.52241e-05 22.1199V18.2489C-0.0171602 17.9985 0.0149652 17.7472 0.0944824 17.5094C0.174 17.2716 0.299339 17.052 0.463288 16.8632C0.646605 16.6921 0.862797 16.5609 1.09846 16.4776C1.33412 16.3943 1.58423 16.3607 1.83329 16.3789C2.08185 16.3605 2.33149 16.3941 2.56663 16.4774C2.80177 16.5607 3.01737 16.6921 3.19995 16.8632C3.3645 17.0517 3.49044 17.2712 3.57054 17.509C3.65063 17.7468 3.68328 17.9983 3.66662 18.2489V18.972H2.50329V18.1614C2.52093 17.9611 2.45988 17.7618 2.33329 17.6065C2.20634 17.4922 2.03987 17.433 1.86995 17.4417C1.78577 17.437 1.7015 17.4492 1.62199 17.4774C1.54248 17.5057 1.46929 17.5496 1.40662 17.6065C1.34196 17.6824 1.29302 17.7706 1.26267 17.8659C1.23233 17.9612 1.22121 18.0617 1.22995 18.1614V22.1973C1.21864 22.2979 1.22821 22.3998 1.25805 22.4965C1.28789 22.5932 1.33735 22.6826 1.40329 22.759C1.53181 22.8702 1.69746 22.9279 1.86662 22.9204C2.03736 22.9278 2.20442 22.8688 2.33329 22.7556C2.39752 22.6789 2.4457 22.59 2.47491 22.494C2.50413 22.398 2.51378 22.2971 2.50329 22.1973V21.1312H3.66662Z" fill="#E5E5E5"/>
<path d="M5.43001 18.2489C5.41306 17.9972 5.44685 17.7446 5.52935 17.5064C5.61185 17.2683 5.74135 17.0495 5.91001 16.8632C6.09644 16.6927 6.31505 16.562 6.55275 16.4788C6.79044 16.3956 7.04233 16.3616 7.29335 16.3789C7.54267 16.3635 7.79253 16.3984 8.02832 16.4816C8.26412 16.5648 8.48113 16.6945 8.66668 16.8632C8.83534 17.0495 8.96484 17.2683 9.04734 17.5064C9.12984 17.7446 9.16363 17.9972 9.14668 18.2489V22.1199C9.16325 22.3716 9.12927 22.6241 9.04679 22.8622C8.96431 23.1003 8.83502 23.3191 8.66668 23.5056C8.47953 23.676 8.26033 23.8067 8.02211 23.8899C7.78389 23.9731 7.53152 24.0071 7.28001 23.9899C7.029 24.0072 6.77711 23.9732 6.53941 23.89C6.30172 23.8068 6.08311 23.6761 5.89668 23.5056C5.72834 23.3191 5.59905 23.1003 5.51657 22.8622C5.43409 22.6241 5.40011 22.3716 5.41668 22.1199L5.43001 18.2489ZM6.66668 22.1973C6.65679 22.2989 6.66703 22.4015 6.69678 22.499C6.72654 22.5966 6.77523 22.6873 6.84001 22.7657C6.97139 22.8721 7.13485 22.9301 7.30335 22.9301C7.47184 22.9301 7.6353 22.8721 7.76668 22.7657C7.83035 22.6869 7.87764 22.5959 7.9057 22.4983C7.93376 22.4006 7.94203 22.2982 7.93001 22.1973V18.1614C7.94105 18.0598 7.93137 17.9569 7.90157 17.8592C7.87176 17.7614 7.82245 17.6708 7.75668 17.593C7.6253 17.4866 7.46184 17.4286 7.29335 17.4286C7.12485 17.4286 6.96139 17.4866 6.83001 17.593C6.76683 17.6721 6.71985 17.7631 6.69181 17.8607C6.66377 17.9583 6.65523 18.0605 6.66668 18.1614V22.1973Z" fill="#E5E5E5"/>
<path d="M12.1666 18.5146V23.8958H11.0599V16.4799H12.5999L13.8633 20.9328V16.4799H14.9566V23.9059H13.6966L12.1666 18.5146Z" fill="#E5E5E5"/>
<path d="M16.8 18.2489C16.767 17.7452 16.9296 17.2482 17.2533 16.8633C17.4336 16.6917 17.6474 16.56 17.881 16.4766C18.1146 16.3932 18.3629 16.36 18.61 16.379C18.8571 16.3597 19.1055 16.3929 19.3391 16.4763C19.5727 16.5597 19.7865 16.6915 19.9667 16.8633C20.2916 17.2475 20.4544 17.745 20.42 18.2489V18.4978H19.26V18.1615C19.2799 17.9579 19.2214 17.7544 19.0967 17.5931C19.0364 17.5357 18.965 17.4914 18.887 17.463C18.809 17.4347 18.7261 17.4229 18.6433 17.4283C18.5611 17.4229 18.4787 17.4348 18.4012 17.4632C18.3238 17.4915 18.253 17.5358 18.1933 17.5931C18.067 17.7536 18.0084 17.9577 18.03 18.1615C18.0258 18.3983 18.0883 18.6315 18.21 18.8341C18.3362 19.0434 18.4898 19.2346 18.6667 19.4025C18.8433 19.5774 19.0367 19.7388 19.24 19.9238C19.446 20.0985 19.6387 20.2885 19.8167 20.4922C19.9948 20.7017 20.1419 20.9362 20.2533 21.1884C20.3794 21.4798 20.4408 21.7954 20.4333 22.1133C20.4496 22.3638 20.4168 22.6152 20.3367 22.853C20.2566 23.0907 20.1309 23.3102 19.9667 23.4989C19.7842 23.6702 19.5686 23.8017 19.3334 23.885C19.0983 23.9684 18.8486 24.0018 18.6 23.9832C18.3509 24.0014 18.1008 23.9679 17.8652 23.8846C17.6295 23.8012 17.4133 23.67 17.23 23.4989C16.9008 23.1166 16.7343 22.6187 16.7667 22.1133V21.6626H17.93V22.1973C17.9187 22.298 17.9283 22.3999 17.9581 22.4966C17.9879 22.5933 18.0374 22.6826 18.1033 22.759C18.2355 22.8637 18.3986 22.9207 18.5667 22.9207C18.7347 22.9207 18.8979 22.8637 19.03 22.759C19.0959 22.6826 19.1454 22.5933 19.1752 22.4966C19.2051 22.3999 19.2146 22.298 19.2033 22.1973C19.2075 21.9605 19.1451 21.7273 19.0233 21.5247C18.8988 21.3221 18.7486 21.1367 18.5767 20.9731C18.4 20.7982 18.2067 20.6368 18.0033 20.4518C17.7974 20.2771 17.6046 20.0871 17.4267 19.8834C17.2436 19.6694 17.0931 19.4291 16.98 19.1704C16.8547 18.88 16.7933 18.5656 16.8 18.2489Z" fill="#E5E5E5"/>
<path d="M21.8966 16.4799H25.6933V17.5426H24.4099V23.9328H23.1799V17.5426H21.8966V16.4799Z" fill="#E5E5E5"/>
<path d="M29.9166 23.9058C29.9166 23.8554 29.8866 23.8083 29.8699 23.7679C29.8539 23.7151 29.8417 23.6611 29.8333 23.6065C29.8187 23.5255 29.8109 23.4433 29.8099 23.361C29.8099 23.2634 29.8099 23.139 29.8099 22.991V21.8206C29.835 21.5612 29.7676 21.3013 29.6199 21.0874C29.5376 21.0095 29.4396 20.9502 29.3327 20.9137C29.2257 20.8771 29.1123 20.8641 28.9999 20.8756H28.5766V23.9025H27.3333V16.4798H29.1999C29.7012 16.434 30.2006 16.5859 30.5933 16.9036C30.7436 17.0743 30.8589 17.2733 30.9327 17.4892C31.0065 17.7051 31.0373 17.9335 31.0233 18.1614V18.7466C31.0233 19.509 30.7544 20.0123 30.2166 20.2567C30.3594 20.3046 30.4905 20.3823 30.6014 20.4849C30.7122 20.5875 30.8004 20.7126 30.8599 20.852C30.9857 21.1728 31.0447 21.5162 31.0333 21.861V23.0078C31.0315 23.1696 31.0393 23.3313 31.0566 23.4921C31.0716 23.6371 31.1087 23.7789 31.1666 23.9125L29.9166 23.9058ZM28.5833 17.5157V19.8027H29.0633C29.258 19.8145 29.4503 19.7534 29.6033 19.6312C29.6772 19.5484 29.7329 19.4507 29.7668 19.3446C29.8007 19.2386 29.812 19.1265 29.7999 19.0157V18.2926C29.8173 18.086 29.7644 17.8796 29.6499 17.7074C29.5888 17.6433 29.5143 17.5937 29.4319 17.5623C29.3494 17.5309 29.2611 17.5184 29.1733 17.5258L28.5833 17.5157Z" fill="#E5E5E5"/>
<path d="M34.1266 16.4799V22.1973C34.1156 22.2985 34.1253 22.4008 34.1552 22.498C34.185 22.5952 34.2342 22.6852 34.2999 22.7624C34.433 22.8649 34.5958 22.9205 34.7633 22.9205C34.9307 22.9205 35.0935 22.8649 35.2266 22.7624C35.2923 22.6852 35.3415 22.5952 35.3714 22.498C35.4012 22.4008 35.4109 22.2985 35.3999 22.1973V16.4799H36.5633V22.1301C36.5956 22.6355 36.4291 23.1334 36.0999 23.5157C35.7116 23.8293 35.229 24.0001 34.7316 24.0001C34.2342 24.0001 33.7516 23.8293 33.3633 23.5157C33.1996 23.3268 33.0745 23.1072 32.995 22.8694C32.9155 22.6317 32.8832 22.3804 32.8999 22.1301V16.4799H34.1266Z" fill="#E5E5E5"/>
<path d="M42.0799 21.1311V22.1199C42.0967 22.3703 42.0644 22.6215 41.9849 22.8592C41.9054 23.097 41.7802 23.3166 41.6166 23.5056C41.2282 23.8191 40.7456 23.99 40.2482 23.99C39.7509 23.99 39.2683 23.8191 38.8799 23.5056C38.7163 23.3166 38.5911 23.097 38.5116 22.8592C38.4321 22.6215 38.3998 22.3703 38.4166 22.1199V18.2488C38.3995 17.9985 38.4316 17.7471 38.5111 17.5093C38.5906 17.2715 38.716 17.0519 38.8799 16.8632C39.2683 16.5496 39.7509 16.3788 40.2482 16.3788C40.7456 16.3788 41.2282 16.5496 41.6166 16.8632C41.7805 17.0519 41.9059 17.2715 41.9854 17.5093C42.0649 17.7471 42.097 17.9985 42.0799 18.2488V18.9719H40.9199V18.1614C40.931 18.0597 40.9213 17.9569 40.8915 17.8591C40.8617 17.7614 40.8124 17.6708 40.7466 17.593C40.6152 17.4866 40.4517 17.4285 40.2832 17.4285C40.1147 17.4285 39.9513 17.4866 39.8199 17.593C39.7541 17.6708 39.7048 17.7614 39.675 17.8591C39.6452 17.9569 39.6355 18.0597 39.6466 18.1614V22.1973C39.6353 22.2979 39.6448 22.3998 39.6747 22.4965C39.7045 22.5932 39.754 22.6826 39.8199 22.7589C39.952 22.8637 40.1152 22.9206 40.2832 22.9206C40.4513 22.9206 40.6144 22.8637 40.7466 22.7589C40.8125 22.6826 40.862 22.5932 40.8918 22.4965C40.9217 22.3998 40.9312 22.2979 40.9199 22.1973V21.1311H42.0799Z" fill="#E5E5E5"/>
<path d="M43.59 16.4799H47.3866V17.5426H46.1033V23.9328H44.8733V17.5426H43.59V16.4799Z" fill="#E5E5E5"/>
<path d="M49.0399 16.4799H50.2699V23.9059H49.0399V16.4799Z" fill="#E5E5E5"/>
<path d="M52.18 18.2489C52.1639 17.9967 52.1987 17.7439 52.2824 17.5057C52.3661 17.2675 52.4968 17.049 52.6666 16.8633C53.0612 16.5493 53.5491 16.3785 54.0516 16.3785C54.5542 16.3785 55.042 16.5493 55.4366 16.8633C55.6053 17.0495 55.7348 17.2683 55.8173 17.5065C55.8998 17.7446 55.9336 17.9972 55.9166 18.2489V22.12C55.947 22.3738 55.9196 22.6312 55.8366 22.8728C55.7535 23.1143 55.617 23.3335 55.4373 23.5138C55.2577 23.6941 55.0396 23.8307 54.7998 23.9132C54.56 23.9957 54.3047 24.0219 54.0533 23.9899C53.8018 24.0071 53.5494 23.9731 53.3112 23.8899C53.073 23.8067 52.8538 23.676 52.6666 23.5056C52.4983 23.3192 52.369 23.1003 52.2865 22.8622C52.204 22.6241 52.1701 22.3717 52.1866 22.12L52.18 18.2489ZM53.41 22.1973C53.3993 22.299 53.4092 22.4017 53.439 22.4994C53.4688 22.5971 53.5179 22.6877 53.5833 22.7657C53.6458 22.8229 53.7189 22.867 53.7985 22.8953C53.878 22.9236 53.9624 22.9356 54.0466 22.9305C54.2165 22.9392 54.383 22.88 54.51 22.7657C54.5747 22.6873 54.6234 22.5967 54.6532 22.4991C54.6829 22.4015 54.6932 22.2989 54.6833 22.1973V18.1615C54.6934 18.0598 54.6832 17.9572 54.6535 17.8596C54.6237 17.762 54.5749 17.6714 54.51 17.5931C54.383 17.4788 54.2165 17.4196 54.0466 17.4283C53.9624 17.4232 53.878 17.4352 53.7985 17.4635C53.7189 17.4918 53.6458 17.5359 53.5833 17.5931C53.5175 17.6709 53.4682 17.7614 53.4384 17.8592C53.4086 17.9569 53.3989 18.0598 53.41 18.1615V22.1973Z" fill="#E5E5E5"/>
<path d="M58.9166 18.5146V23.8958H57.8099V16.4799H59.3499L60.6133 20.9328V16.4799H61.7099V23.9059H60.4466L58.9166 18.5146Z" fill="#E5E5E5"/>
</g>
<defs>
<clipPath id="clip0">
<rect width="62" height="24" fill="white"/>
</clipPath>
</defs>
</svg>
